<?xml version="1.0" encoding="UTF-8" standalone="no"?>
<!DOCTYPE svg PUBLIC "-//W3C//DTD SVG 1.1//EN"
 "http://www.w3.org/Graphics/SVG/1.1/DTD/svg11.dtd">
<!-- Generated by graphviz version 2.40.1 (20161225.0304)
 -->
<!-- Title: G Pages: 1 -->
<svg width="919pt" height="407pt"
 viewBox="0.00 0.00 918.55 407.00" xmlns="http://www.w3.org/2000/svg" xmlns:xlink="http://www.w3.org/1999/xlink">
<g id="graph0" class="graph" transform="scale(1 1) rotate(0) translate(4 403)">
<title>G</title>
<polygon fill="#ffffff" stroke="transparent" points="-4,4 -4,-403 914.5493,-403 914.5493,4 -4,4"/>
<text text-anchor="middle" x="455.2747" y="-9" font-family="Helvetica,sans-Serif" font-size="25.00" fill="#000000">TargetFileList &#45; Class Structure</text>
<g id="clust1" class="cluster">
<title>clusterStart</title>
<polygon fill="#c0c0c0" stroke="#c0c0c0" points="8,-41 8,-391 300.0313,-391 300.0313,-41 8,-41"/>
<text text-anchor="middle" x="154.0156" y="-367" font-family="Helvetica,sans-Serif" font-size="25.00" fill="#000000">Compile</text>
</g>
<g id="clust2" class="cluster">
<title>clusterSource</title>
<polygon fill="#e0e0e0" stroke="#e0e0e0" points="16,-49 16,-350 156.0176,-350 156.0176,-49 16,-49"/>
<text text-anchor="middle" x="86.0088" y="-326" font-family="Helvetica,sans-Serif" font-size="25.00" fill="#000000">Source</text>
</g>
<g id="clust3" class="cluster">
<title>clusterTarget</title>
<polygon fill="#e0e0e0" stroke="#e0e0e0" points="176.0176,-49 176.0176,-350 292.0313,-350 292.0313,-49 176.0176,-49"/>
<text text-anchor="middle" x="234.0244" y="-326" font-family="Helvetica,sans-Serif" font-size="25.00" fill="#000000">Target</text>
</g>
<g id="clust4" class="cluster">
<title>clusterLink</title>
<polygon fill="#c0c0c0" stroke="#c0c0c0" points="312.0313,-146 312.0313,-253 902.5493,-253 902.5493,-146 312.0313,-146"/>
<text text-anchor="middle" x="607.2903" y="-229" font-family="Helvetica,sans-Serif" font-size="25.00" fill="#000000">Link</text>
</g>
<!-- Virtual Source -->
<g id="node1" class="node">
<title>Virtual Source</title>
<polygon fill="none" stroke="#0000ff" stroke-width="2" points="688.1133,-211 337.4501,-211 320.0039,-155 670.6671,-155 688.1133,-211"/>
<text text-anchor="middle" x="504.0586" y="-177" font-family="Courier,monospace" font-size="20.00" fill="#000000">Virtual Source</text>
</g>
<!-- Binary -->
<g id="node2" class="node">
<title>Binary</title>
<polygon fill="none" stroke="#000000" points="886.4524,-190.5807 809.3176,-207.5316 732.1829,-190.5807 761.6457,-163.1535 856.9895,-163.1535 886.4524,-190.5807"/>
<polygon fill="none" stroke="#000000" points="894.7817,-192.8556 809.3176,-211.637 723.8536,-192.8556 760.0674,-159.1439 858.5678,-159.1439 894.7817,-192.8556"/>
<text text-anchor="middle" x="809.3176" y="-177" font-family="Courier,monospace" font-size="20.00" fill="#000000">Binary</text>
</g>
<!-- Virtual Source&#45;&gt;Binary -->
<g id="edge11" class="edge">
<title>Virtual Source&#45;&gt;Binary</title>
<path fill="none" stroke="#000000" d="M679.4177,-183C694.8144,-183 709.8955,-183 724.0152,-183"/>
<polygon fill="#000000" stroke="#000000" points="724.1174,-186.5001 734.1174,-183 724.1173,-179.5001 724.1174,-186.5001"/>
</g>
<!-- file1.cpp -->
<g id="node3" class="node">
<title>file1.cpp</title>
<polygon fill="none" stroke="#000000" points="148.0264,-309 23.9912,-309 23.9912,-273 148.0264,-273 148.0264,-309"/>
<text text-anchor="middle" x="86.0088" y="-285" font-family="Courier,monospace" font-size="20.00" fill="#000000">file1.cpp</text>
</g>
<!-- file1.o -->
<g id="node8" class="node">
<title>file1.o</title>
<polygon fill="none" stroke="#000000" points="284.0381,-309 184.0107,-309 184.0107,-273 284.0381,-273 284.0381,-309"/>
<text text-anchor="middle" x="234.0244" y="-285" font-family="Courier,monospace" font-size="20.00" fill="#000000">file1.o</text>
</g>
<!-- file1.cpp&#45;&gt;file1.o -->
<g id="edge1" class="edge">
<title>file1.cpp&#45;&gt;file1.o</title>
<path fill="none" stroke="#000000" d="M148.3517,-291C156.7771,-291 165.4094,-291 173.7969,-291"/>
<polygon fill="#000000" stroke="#000000" points="173.876,-294.5001 183.876,-291 173.8759,-287.5001 173.876,-294.5001"/>
</g>
<!-- file2.cpp -->
<g id="node4" class="node">
<title>file2.cpp</title>
<polygon fill="none" stroke="#000000" points="148.0264,-255 23.9912,-255 23.9912,-219 148.0264,-219 148.0264,-255"/>
<text text-anchor="middle" x="86.0088" y="-231" font-family="Courier,monospace" font-size="20.00" fill="#000000">file2.cpp</text>
</g>
<!-- file2.o -->
<g id="node9" class="node">
<title>file2.o</title>
<polygon fill="none" stroke="#000000" points="284.0381,-255 184.0107,-255 184.0107,-219 284.0381,-219 284.0381,-255"/>
<text text-anchor="middle" x="234.0244" y="-231" font-family="Courier,monospace" font-size="20.00" fill="#000000">file2.o</text>
</g>
<!-- file2.cpp&#45;&gt;file2.o -->
<g id="edge2" class="edge">
<title>file2.cpp&#45;&gt;file2.o</title>
<path fill="none" stroke="#000000" d="M148.3517,-237C156.7771,-237 165.4094,-237 173.7969,-237"/>
<polygon fill="#000000" stroke="#000000" points="173.876,-240.5001 183.876,-237 173.8759,-233.5001 173.876,-240.5001"/>
</g>
<!-- file3.cpp -->
<g id="node5" class="node">
<title>file3.cpp</title>
<polygon fill="none" stroke="#000000" points="148.0264,-201 23.9912,-201 23.9912,-165 148.0264,-165 148.0264,-201"/>
<text text-anchor="middle" x="86.0088" y="-177" font-family="Courier,monospace" font-size="20.00" fill="#000000">file3.cpp</text>
</g>
<!-- file3.o -->
<g id="node10" class="node">
<title>file3.o</title>
<polygon fill="none" stroke="#000000" points="284.0381,-201 184.0107,-201 184.0107,-165 284.0381,-165 284.0381,-201"/>
<text text-anchor="middle" x="234.0244" y="-177" font-family="Courier,monospace" font-size="20.00" fill="#000000">file3.o</text>
</g>
<!-- file3.cpp&#45;&gt;file3.o -->
<g id="edge3" class="edge">
<title>file3.cpp&#45;&gt;file3.o</title>
<path fill="none" stroke="#000000" d="M148.3517,-183C156.7771,-183 165.4094,-183 173.7969,-183"/>
<polygon fill="#000000" stroke="#000000" points="173.876,-186.5001 183.876,-183 173.8759,-179.5001 173.876,-186.5001"/>
</g>
<!-- file4.cpp -->
<g id="node6" class="node">
<title>file4.cpp</title>
<polygon fill="none" stroke="#000000" points="148.0264,-147 23.9912,-147 23.9912,-111 148.0264,-111 148.0264,-147"/>
<text text-anchor="middle" x="86.0088" y="-123" font-family="Courier,monospace" font-size="20.00" fill="#000000">file4.cpp</text>
</g>
<!-- file4.o -->
<g id="node11" class="node">
<title>file4.o</title>
<polygon fill="none" stroke="#000000" points="284.0381,-147 184.0107,-147 184.0107,-111 284.0381,-111 284.0381,-147"/>
<text text-anchor="middle" x="234.0244" y="-123" font-family="Courier,monospace" font-size="20.00" fill="#000000">file4.o</text>
</g>
<!-- file4.cpp&#45;&gt;file4.o -->
<g id="edge4" class="edge">
<title>file4.cpp&#45;&gt;file4.o</title>
<path fill="none" stroke="#000000" d="M148.3517,-129C156.7771,-129 165.4094,-129 173.7969,-129"/>
<polygon fill="#000000" stroke="#000000" points="173.876,-132.5001 183.876,-129 173.8759,-125.5001 173.876,-132.5001"/>
</g>
<!-- file5.cpp -->
<g id="node7" class="node">
<title>file5.cpp</title>
<polygon fill="none" stroke="#000000" points="148.0264,-93 23.9912,-93 23.9912,-57 148.0264,-57 148.0264,-93"/>
<text text-anchor="middle" x="86.0088" y="-69" font-family="Courier,monospace" font-size="20.00" fill="#000000">file5.cpp</text>
</g>
<!-- file5.o -->
<g id="node12" class="node">
<title>file5.o</title>
<polygon fill="none" stroke="#000000" points="284.0381,-93 184.0107,-93 184.0107,-57 284.0381,-57 284.0381,-93"/>
<text text-anchor="middle" x="234.0244" y="-69" font-family="Courier,monospace" font-size="20.00" fill="#000000">file5.o</text>
</g>
<!-- file5.cpp&#45;&gt;file5.o -->
<g id="edge5" class="edge">
<title>file5.cpp&#45;&gt;file5.o</title>
<path fill="none" stroke="#000000" d="M148.3517,-75C156.7771,-75 165.4094,-75 173.7969,-75"/>
<polygon fill="#000000" stroke="#000000" points="173.876,-78.5001 183.876,-75 173.8759,-71.5001 173.876,-78.5001"/>
</g>
<!-- file1.o&#45;&gt;Virtual Source -->
<g id="edge6" class="edge">
<title>file1.o&#45;&gt;Virtual Source</title>
<path fill="none" stroke="#000000" d="M279.2221,-272.9232C318.7748,-257.1041 377.1483,-233.7577 424.504,-214.8178"/>
<polygon fill="#000000" stroke="#000000" points="425.8341,-218.0554 433.8193,-211.0921 423.2347,-211.556 425.8341,-218.0554"/>
</g>
<!-- file2.o&#45;&gt;Virtual Source -->
<g id="edge7" class="edge">
<title>file2.o&#45;&gt;Virtual Source</title>
<path fill="none" stroke="#000000" d="M284.1829,-226.9696C304.313,-222.9441 328.6753,-218.0722 353.7502,-213.0579"/>
<polygon fill="#000000" stroke="#000000" points="354.6457,-216.4482 363.7652,-211.0551 353.273,-209.5841 354.6457,-216.4482"/>
</g>
<!-- file3.o&#45;&gt;Virtual Source -->
<g id="edge8" class="edge">
<title>file3.o&#45;&gt;Virtual Source</title>
<path fill="none" stroke="#000000" d="M284.1829,-183C294.5497,-183 306.039,-183 318.17,-183"/>
<polygon fill="#000000" stroke="#000000" points="318.5004,-186.5001 328.5004,-183 318.5003,-179.5001 318.5004,-186.5001"/>
</g>
<!-- file4.o&#45;&gt;Virtual Source -->
<g id="edge9" class="edge">
<title>file4.o&#45;&gt;Virtual Source</title>
<path fill="none" stroke="#000000" d="M284.1829,-139.0304C304.313,-143.0559 328.6753,-147.9278 353.7502,-152.9421"/>
<polygon fill="#000000" stroke="#000000" points="353.273,-156.4159 363.7652,-154.9449 354.6457,-149.5518 353.273,-156.4159"/>
</g>
<!-- file5.o&#45;&gt;Virtual Source -->
<g id="edge10" class="edge">
<title>file5.o&#45;&gt;Virtual Source</title>
<path fill="none" stroke="#000000" d="M279.2221,-93.0768C318.7748,-108.8959 377.1483,-132.2423 424.504,-151.1822"/>
<polygon fill="#000000" stroke="#000000" points="423.2347,-154.444 433.8193,-154.9079 425.8341,-147.9446 423.2347,-154.444"/>
</g>
</g>
</svg>
